<svg width="291" height="66" viewBox="0 0 291 66" fill="none" xmlns="http://www.w3.org/2000/svg">
<g clip-path="url(#clip0_7573_5)">
<path d="M25.46 0V8.31999H9.33V14.43H24V22.75H9.33V35.3H0V0H25.46Z" fill="white"/>
<path d="M49.87 0V35.3H40.54V0H49.87Z" fill="white"/>
<path d="M66.61 35.3V0H81.49C88.65 0 95.96 2.56999 95.96 11.9C95.96 17.75 93.09 20.9 89.2 22.49L98.94 35.3H88.4L79.97 23.81H75.97V35.3H66.61ZM75.94 16.24H81.94C84.61 16.24 86.43 14.88 86.43 12.16C86.43 9.43999 84.61 8.06999 81.94 8.06999H75.94V16.24Z" fill="white"/>
<path d="M151.68 0V35.3H142.35V16.54L134.79 28.14H129.45L121.88 16.49V35.3H112.55V0H121.38L132.12 16.54L142.86 0H151.68Z" fill="white"/>
<path d="M165.15 35.3L179.02 0H189.1L202.97 35.3H193.39L191.39 29.76H176.75L174.75 35.3H165.15ZM179.52 22.19H188.6L184.97 12.01C184.538 10.8498 184.232 9.6461 184.06 8.42C183.883 9.64512 183.578 10.8483 183.15 12.01L179.52 22.19Z" fill="white"/>
<path d="M241.9 0V8.31999H225.76V14.43H240.44V22.75H225.76V35.3H216.43V0H241.9Z" fill="white"/>
<path d="M267.37 35.3V23.25L253.6 0H264.19L272 14.58L279.82 0H290.41L276.64 23.25V35.3H267.37Z" fill="white"/>
<path d="M25.54 65.4L21.2 53.83H24.5L27.11 61.76L29.72 53.83H33.03L28.68 65.4H25.54Z" fill="white"/>
<path d="M43.83 53.83V65.4H40.83V53.83H43.83Z" fill="white"/>
<path d="M55.93 65.4L51.58 53.83H54.89L57.5 61.76L60.11 53.83H63.41L59.07 65.4H55.93Z" fill="white"/>
<path d="M79.49 53.83V56.47H74.27V58.24H79.04V60.87H74.27V62.75H79.64V65.4H71.21V53.83H79.49Z" fill="white"/>
<path d="M101.96 53.58C103.311 53.5599 104.645 53.8797 105.84 54.51V57.32C104.783 56.5665 103.508 56.1801 102.21 56.22C101.09 56.22 100.74 56.54 100.74 56.97C100.74 58.47 106.74 57.97 106.74 62.11C106.74 64.85 104.64 65.64 102.12 65.64C100.573 65.6637 99.0435 65.3029 97.67 64.59V61.69C98.9079 62.5437 100.376 63.0006 101.88 63C103.09 63 103.6 62.8 103.6 62.22C103.6 60.55 97.6 61.12 97.6 56.98C97.6 54.67 99.58 53.58 101.96 53.58Z" fill="white"/>
<path d="M117.94 53.83V65.4H114.88V53.83H117.94Z" fill="white"/>
<path d="M126.73 65.4V53.83H129.62L134.15 60.47C134.15 59.93 134.08 59.2 134.08 58.55V53.83H137.14V65.4H134.27L129.74 58.77C129.79 59.31 129.81 60.04 129.81 60.67V65.4H126.73Z" fill="white"/>
<path d="M160.55 53.83C163.41 53.83 165.55 54.75 165.55 57.83C165.55 60.91 163.37 61.78 160.55 61.83H159.03V65.47H155.97V53.83H160.55ZM160.7 56.47H159.03V59.12H160.7C161.63 59.12 162.45 58.84 162.45 57.79C162.45 56.74 161.63 56.47 160.7 56.47Z" fill="white"/>
<path d="M171.46 65.4L176 53.83H179.27L183.82 65.4H180.68L180.02 63.58H175.27L174.61 65.4H171.46ZM176.17 61.1H179.17L177.98 57.76C177.839 57.3816 177.738 56.9895 177.68 56.59C177.619 56.9879 177.522 57.3795 177.39 57.76L176.17 61.1Z" fill="white"/>
<path d="M196.14 53.83C199 53.83 201.14 54.75 201.14 57.83C201.14 60.91 198.96 61.78 196.14 61.83H194.62V65.47H191.56V53.83H196.14ZM196.29 56.47H194.62V59.12H196.27C197.2 59.12 198.02 58.84 198.02 57.79C198.02 56.74 197.27 56.47 196.27 56.47H196.29Z" fill="white"/>
<path d="M217.54 53.83V56.47H212.27V58.24H217.04V60.87H212.27V62.75H217.64V65.4H209.21V53.83H217.54Z" fill="white"/>
<path d="M229.07 53.83V62.67H234.36V65.4H226.02V53.83H229.07Z" fill="white"/>
<path d="M250.6 53.83V56.47H245.33V58.24H250.11V60.87H245.33V62.75H250.7V65.4H242.27V53.83H250.6Z" fill="white"/>
<path d="M263.03 53.58C264.381 53.5624 265.714 53.8821 266.91 54.51V57.32C265.848 56.5684 264.57 56.1823 263.27 56.22C262.15 56.22 261.8 56.54 261.8 56.97C261.8 58.47 267.8 57.97 267.8 62.11C267.8 64.85 265.7 65.64 263.17 65.64C261.626 65.6637 260.1 65.3028 258.73 64.59V61.69C259.968 62.5437 261.436 63.0006 262.94 63C264.15 63 264.66 62.8 264.66 62.22C264.66 60.55 258.66 61.12 258.66 56.98C258.66 54.67 260.65 53.58 263.03 53.58Z" fill="white"/>
</g>
<defs>
<clipPath id="clip0_7573_5">
<rect width="290.41" height="65.64" fill="white"/>
</clipPath>
</defs>
</svg>
